<svg width="111" height="111" viewBox="0 0 111 111" fill="none" xmlns="http://www.w3.org/2000/svg">
<path d="M55.5003 99.1667C67.0814 99.1667 78.1882 94.5661 86.3773 86.377C94.5664 78.1879 99.167 67.0811 99.167 55.5C99.167 43.9189 94.5664 32.8121 86.3773 24.623C78.1882 16.4339 67.0814 11.8334 55.5003 11.8334C43.9192 11.8334 32.8124 16.4339 24.6233 24.623C16.4342 32.8121 11.8337 43.9189 11.8337 55.5C11.8337 67.0811 16.4342 78.1879 24.6233 86.377C32.8124 94.5661 43.9192 99.1667 55.5003 99.1667ZM55.5003 0.916687C62.6683 0.916687 69.7661 2.32853 76.3885 5.0716C83.0108 7.81466 89.028 11.8352 94.0966 16.9038C99.1651 21.9723 103.186 27.9895 105.929 34.6119C108.672 41.2342 110.084 48.332 110.084 55.5C110.084 69.9764 104.333 83.8599 94.0966 94.0963C83.8602 104.333 69.9767 110.083 55.5003 110.083C25.3157 110.083 0.916992 85.5209 0.916992 55.5C0.916992 41.0236 6.66772 27.1401 16.9041 16.9038C27.1404 6.66741 41.0239 0.916687 55.5003 0.916687ZM58.2295 28.2084V56.8646L82.792 71.4383L78.6982 78.1521L50.042 60.9584V28.2084H58.2295Z" fill="#C90000"/>
</svg>
