<svg width="102" height="106" viewBox="0 0 102 106" fill="none" xmlns="http://www.w3.org/2000/svg">
<path d="M70.5 105.5C59.0278 105.5 48.8194 102.243 39.875 95.7292C30.9306 89.2153 24.6111 80.8055 20.9167 70.5H0.5V58.8333H18.2917C18 56.5 17.8794 54.3378 17.93 52.3467C17.9806 50.3555 18.1011 48.6289 18.2917 47.1667H0.5V35.5H20.9167C24.6111 25.1944 30.9306 16.7847 39.875 10.2708C48.8194 3.75695 59.0278 0.5 70.5 0.5C77.2083 0.5 83.5531 1.69194 89.5342 4.07583C95.5153 6.45972 100.837 9.74 105.5 13.9167L97.1875 22.0833C93.5903 18.9722 89.5322 16.5417 85.0133 14.7917C80.4945 13.0417 75.6567 12.1667 70.5 12.1667C62.2361 12.1667 54.8472 14.3308 48.3333 18.6592C41.8194 22.9875 36.9097 28.6011 33.6042 35.5H70.5V47.1667H30.1042C29.7153 49.7917 29.5694 52.1017 29.6667 54.0967C29.7639 56.0917 29.9097 57.6706 30.1042 58.8333H70.5V70.5H33.6042C36.9097 77.4028 41.8194 83.0183 48.3333 87.3467C54.8472 91.675 62.2361 93.8372 70.5 93.8333C75.6528 93.8333 80.4906 92.9583 85.0133 91.2083C89.5361 89.4583 93.5942 87.0278 97.1875 83.9167L105.5 92.0833C100.833 96.2639 95.5094 99.5461 89.5283 101.93C83.5472 104.314 77.2044 105.504 70.5 105.5Z" fill="#C90000"/>
</svg>
