<svg width="102" height="154" viewBox="0 0 102 154" fill="none" xmlns="http://www.w3.org/2000/svg">
<path d="M47.3025 152.389C48.3822 153.316 49.6746 153.815 51 153.815C52.3254 153.815 53.6178 153.316 54.6975 152.389C56.6354 150.735 102.184 111.058 101.999 61.5277C101.999 27.6029 79.1198 0 51 0C22.8802 0 0.000561234 27.6029 0.000561234 61.4893C-0.184312 111.058 45.3646 150.735 47.3025 152.389ZM51 15.3819C72.0946 15.3819 89.2496 36.0783 89.2496 61.5662C89.3835 95.6987 61.2764 126.347 51 136.399C40.73 126.34 12.6165 95.6833 12.7504 61.5277C12.7504 36.0783 29.9054 15.3819 51 15.3819Z" fill="black"/>
</svg>
